# xmcd
#
# Track frame offsets: 
#        150
#        22667
#        43825
#        65102
#        85485
#        105002
#        127002
#        149590
#        170080
#        190872
#        209362
#
# Disc length: 3062 seconds
#
# Revision: 2
# Processed by: cddbd v1.5.2PL0 Copyright (c) Steve Scherf et al.
# Submitted via: ExactAudioCopy v0.95b2
#
DISCID=9e0bf40b
DTITLE=酒井法子 - work out fine
DYEAR=1998
DGENRE=(146)JPop
TTITLE0=01 ALL WE NEED IS CHANGE
TTITLE1=02 れゾプよソ風景
TTITLE2=03 9月ソ海
TTITLE3=04 Sweet-Go-Round
TTITLE4=05 アソ街ザ
TTITLE5=06 橫顏
TTITLE6=07 幸オズ出會よ方法
TTITLE7=08 Freedom
TTITLE8=09 Milk tea
TTITLE9=10 Ensemble
TTITLE10=11 淚\色
EXTD=Victor Entertainment Inc., Tokyo, JAPAN.\nVIVL-60256\nJul 1 1998 
EXTD=Released.\nGenre: Pops
EXTT0=
EXTT1=
EXTT2=
EXTT3=
EXTT4=
EXTT5=
EXTT6=
EXTT7=
EXTT8=
EXTT9=
EXTT10=
PLAYORDER=
